<mxfile host="app.diagrams.net" modified="2022-02-16T01:32:27.797Z" agent="5.0 (Windows NT 10.0; Win64; x64) AppleWebKit/537.36 (KHTML, like Gecko) Chrome/98.0.4758.82 Safari/537.36" etag="L99ZUp0YWl4FtCOiHVo3" version="16.5.6" type="github">
  <diagram id="bUVrJ68SwI_maUSBCaA_" name="第 1 页">
    <mxGraphModel dx="2062" dy="1113" grid="1" gridSize="10" guides="1" tooltips="1" connect="1" arrows="1" fold="1" page="1" pageScale="1" pageWidth="827" pageHeight="1169" math="0" shadow="0">
      <root>
        <mxCell id="0" />
        <mxCell id="1" parent="0" />
      </root>
    </mxGraphModel>
  </diagram>
</mxfile>
